<svg viewBox="0 0 512 512" xmlns="http://www.w3.org/2000/svg">
  <defs>
    <filter id="drop-shadow" x="-10%" y="-10%" width="130%" height="130%">
      <feDropShadow dx="2" dy="4" stdDeviation="4" flood-color="#000000" flood-opacity="0.15"/>
    </filter>

    <linearGradient id="stemGrad" x1="0%" y1="0%" x2="100%" y2="0%">
      <stop offset="0%" stop-color="#1B5E20"/>
      <stop offset="30%" stop-color="#4CAF50"/>
      <stop offset="70%" stop-color="#81C784"/>
      <stop offset="100%" stop-color="#2E7D32"/>
    </linearGradient>

    <linearGradient id="leafGrad" x1="0%" y1="100%" x2="100%" y2="0%">
      <stop offset="0%" stop-color="#1B5E20"/>
      <stop offset="40%" stop-color="#388E3C"/>
      <stop offset="100%" stop-color="#81C784"/>
    </linearGradient>

    <pattern id="epidermis" width="20" height="15" patternUnits="userSpaceOnUse">
      <rect x="1" y="1" width="18" height="13" rx="4" fill="#C8E6C9" stroke="#4CAF50" stroke-width="1.5"/>
    </pattern>

    <pattern id="palisade" width="20" height="40" patternUnits="userSpaceOnUse">
      <rect x="2" y="1" width="16" height="38" rx="6" fill="#81C784" stroke="#2E7D32" stroke-width="1.5"/>
      <circle cx="6" cy="8" r="1.5" fill="#1B5E20"/>
      <circle cx="14" cy="12" r="1.5" fill="#1B5E20"/>
      <circle cx="6" cy="20" r="1.5" fill="#1B5E20"/>
      <circle cx="14" cy="28" r="1.5" fill="#1B5E20"/>
      <circle cx="6" cy="34" r="1.5" fill="#1B5E20"/>
    </pattern>

    <pattern id="spongy" width="40" height="60" patternUnits="userSpaceOnUse">
      <circle cx="12" cy="15" r="10" fill="#AED581" stroke="#4CAF50" stroke-width="1.5"/>
      <circle cx="32" cy="25" r="12" fill="#AED581" stroke="#4CAF50" stroke-width="1.5"/>
      <circle cx="15" cy="45" r="11" fill="#AED581" stroke="#4CAF50" stroke-width="1.5"/>
      <circle cx="35" cy="50" r="9" fill="#AED581" stroke="#4CAF50" stroke-width="1.5"/>
      <circle cx="8" cy="12" r="1.5" fill="#1B5E20"/>
      <circle cx="16" cy="18" r="1.5" fill="#1B5E20"/>
      <circle cx="30" cy="20" r="1.5" fill="#1B5E20"/>
      <circle cx="36" cy="30" r="1.5" fill="#1B5E20"/>
      <circle cx="12" cy="40" r="1.5" fill="#1B5E20"/>
      <circle cx="20" cy="50" r="1.5" fill="#1B5E20"/>
    </pattern>

    <pattern id="pith-cells" width="20" height="34.64" patternUnits="userSpaceOnUse">
      <circle cx="10" cy="10" r="11" fill="none" stroke="#C8E6C9" stroke-width="1.5"/>
      <circle cx="0" cy="27.32" r="11" fill="none" stroke="#C8E6C9" stroke-width="1.5"/>
      <circle cx="20" cy="27.32" r="11" fill="none" stroke="#C8E6C9" stroke-width="1.5"/>
    </pattern>

    <g id="leaf">
      <path d="M 0 0 C 40 -50, 100 -70, 140 -40 C 110 0, 40 30, 0 0 Z" fill="url(#leafGrad)" filter="url(#drop-shadow)"/>
      <path d="M 0 0 Q 80 -10 140 -40" stroke="#A5D6A7" stroke-width="2.5" fill="none"/>
      <path d="M 20 -3 Q 30 -20 45 -25" stroke="#A5D6A7" stroke-width="1.5" fill="none"/>
      <path d="M 40 -6 Q 55 -25 75 -30" stroke="#A5D6A7" stroke-width="1.5" fill="none"/>
      <path d="M 60 -10 Q 80 -30 100 -32" stroke="#A5D6A7" stroke-width="1.5" fill="none"/>
      <path d="M 80 -15 Q 100 -30 120 -30" stroke="#A5D6A7" stroke-width="1.5" fill="none"/>
      <path d="M 20 -3 Q 35 10 50 10" stroke="#A5D6A7" stroke-width="1.5" fill="none"/>
      <path d="M 40 -6 Q 60 5 80 0" stroke="#A5D6A7" stroke-width="1.5" fill="none"/>
      <path d="M 60 -10 Q 85 -5 105 -10" stroke="#A5D6A7" stroke-width="1.5" fill="none"/>
      <path d="M 80 -15 Q 105 -15 125 -20" stroke="#A5D6A7" stroke-width="1.5" fill="none"/>
    </g>

    <g id="vascular-bundle">
      <path d="M -15 -80 C -25 -95, 25 -95, 15 -80 L 12 -60 L -12 -60 Z" fill="#4DB6AC" stroke="#00695C" stroke-width="1"/>
      <path d="M -12 -60 L 12 -60 L 11 -55 L -11 -55 Z" fill="#FFF176" stroke="#FBC02D" stroke-width="1"/>
      <path d="M -11 -55 L 11 -55 L 6 -25 C 6 -15, -6 -15, -6 -25 Z" fill="#E57373" stroke="#C62828" stroke-width="1"/>
      <circle cx="0" cy="-45" r="4" fill="#FFCDD2" stroke="#C62828" stroke-width="1"/>
      <circle cx="-5" cy="-35" r="3" fill="#FFCDD2" stroke="#C62828" stroke-width="1"/>
      <circle cx="5" cy="-35" r="3" fill="#FFCDD2" stroke="#C62828" stroke-width="1"/>
      <circle cx="0" cy="-25" r="2" fill="#FFCDD2" stroke="#C62828" stroke-width="1"/>
    </g>
  </defs>

  <path d="M 146 127 L 280 127" stroke="#BDBDBD" stroke-width="2" stroke-dasharray="4 4" fill="none"/>
  <circle cx="146" cy="127" r="3" fill="#BDBDBD"/>
  <circle cx="280" cy="127" r="3" fill="#BDBDBD"/>

  <path d="M 145 380 L 280 380" stroke="#BDBDBD" stroke-width="2" stroke-dasharray="4 4" fill="none"/>
  <circle cx="145" cy="380" r="3" fill="#BDBDBD"/>
  <circle cx="280" cy="380" r="3" fill="#BDBDBD"/>

  <g id="main-shoot">
    <path d="M 135 480 C 135 300, 145 150, 148 40 L 152 40 C 155 150, 145 300, 145 480 Z" fill="url(#stemGrad)" filter="url(#drop-shadow)"/>
    <ellipse cx="140" cy="480" rx="5" ry="2" fill="#1B5E20"/>
    
    <path d="M 137 400 Q 146 405 145 400" stroke="#1B5E20" stroke-width="2" fill="none"/>
    <path d="M 138 320 Q 145 325 144 320" stroke="#1B5E20" stroke-width="2" fill="none"/>
    <path d="M 140 240 Q 147 245 146 240" stroke="#1B5E20" stroke-width="2" fill="none"/>
    <path d="M 142 160 Q 147 165 146 160" stroke="#1B5E20" stroke-width="2" fill="none"/>
    <path d="M 144 90 Q 148 95 148 90" stroke="#1B5E20" stroke-width="2" fill="none"/>

    <use href="#leaf" x="0" y="0" transform="translate(146, 400) rotate(5) scale(0.85)"/>
    <use href="#leaf" x="0" y="0" transform="translate(144, 320) scale(-1, 1) rotate(15) scale(0.8)"/>
    <use href="#leaf" x="0" y="0" transform="translate(147, 240) rotate(25) scale(0.7)"/>
    <use href="#leaf" x="0" y="0" transform="translate(146, 160) scale(-1, 1) rotate(35) scale(0.6)"/>
    <use href="#leaf" x="0" y="0" transform="translate(148, 90) rotate(45) scale(0.45)"/>
    <use href="#leaf" x="0" y="0" transform="translate(147, 50) scale(-1, 1) rotate(55) scale(0.3)"/>

    <path d="M 145 40 C 140 20, 150 10, 150 10 C 150 10, 160 20, 155 40 Z" fill="#AED581"/>
    <path d="M 148 40 C 145 25, 150 15, 150 15 C 150 15, 155 25, 152 40 Z" fill="#81C784"/>
  </g>

  <g id="leaf-cross-section">
    <rect x="280" y="58" width="200" height="137" fill="#FCFCFC" rx="4" filter="url(#drop-shadow)"/>
    
    <rect x="280" y="58" width="200" height="4" fill="#A5D6A7" opacity="0.6"/>
    
    <rect x="280" y="62" width="200" height="15" fill="url(#epidermis)"/>
    
    <rect x="280" y="77" width="200" height="40" fill="url(#palisade)"/>
    
    <rect x="280" y="117" width="200" height="60" fill="url(#spongy)"/>
    
    <circle cx="380" cy="165" r="15" fill="#FCFCFC"/>
    
    <rect x="280" y="177" width="85" height="15" fill="url(#epidermis)"/>
    <rect x="395" y="177" width="85" height="15" fill="url(#epidermis)"/>
    
    <rect x="280" y="192" width="85" height="3" fill="#A5D6A7" opacity="0.6"/>
    <rect x="395" y="192" width="85" height="3" fill="#A5D6A7" opacity="0.6"/>
    
    <path d="M 378 177 C 368 177, 368 192, 378 192 C 373 185, 373 185, 378 177 Z" fill="#81C784" stroke="#2E7D32" stroke-width="1.5"/>
    <path d="M 382 177 C 392 177, 392 192, 382 192 C 387 185, 387 185, 382 177 Z" fill="#81C784" stroke="#2E7D32" stroke-width="1.5"/>

    <circle cx="380" cy="127" r="40" fill="#F1F8E9" stroke="#81C784" stroke-width="2"/>
    <circle cx="380" cy="127" r="40" fill="none" stroke="#4CAF50" stroke-width="6" stroke-dasharray="8 2.5"/>
    
    <path d="M 342 127 A 38 38 0 0 1 418 127 Z" fill="#FFCDD2"/>
    <path d="M 342 127 A 38 38 0 0 0 418 127 Z" fill="#B2DFDB"/>
    
    <circle cx="380" cy="105" r="8" fill="#E57373" stroke="#C62828" stroke-width="1"/>
    <circle cx="360" cy="115" r="6" fill="#E57373" stroke="#C62828" stroke-width="1"/>
    <circle cx="400" cy="115" r="6" fill="#E57373" stroke="#C62828" stroke-width="1"/>
    <circle cx="375" cy="122" r="4" fill="#E57373" stroke="#C62828" stroke-width="1"/>
    <circle cx="385" cy="122" r="4" fill="#E57373" stroke="#C62828" stroke-width="1"/>
    
    <circle cx="380" cy="145" r="4" fill="#4DB6AC" stroke="#00695C" stroke-width="1"/>
    <circle cx="365" cy="138" r="4" fill="#4DB6AC" stroke="#00695C" stroke-width="1"/>
    <circle cx="395" cy="138" r="4" fill="#4DB6AC" stroke="#00695C" stroke-width="1"/>
    <circle cx="375" cy="155" r="3" fill="#4DB6AC" stroke="#00695C" stroke-width="1"/>
    <circle cx="385" cy="155" r="3" fill="#4DB6AC" stroke="#00695C" stroke-width="1"/>
    <circle cx="355" cy="130" r="3" fill="#4DB6AC" stroke="#00695C" stroke-width="1"/>
    <circle cx="405" cy="130" r="3" fill="#4DB6AC" stroke="#00695C" stroke-width="1"/>

    <path d="M 490 70 L 505 70" stroke="#757575" stroke-width="1.5"/>
    <circle cx="490" cy="70" r="2" fill="#757575"/>
    <path d="M 490 95 L 505 95" stroke="#757575" stroke-width="1.5"/>
    <circle cx="490" cy="95" r="2" fill="#757575"/>
    <path d="M 490 145 L 505 145" stroke="#757575" stroke-width="1.5"/>
    <circle cx="490" cy="145" r="2" fill="#757575"/>
    <path d="M 490 185 L 505 185" stroke="#757575" stroke-width="1.5"/>
    <circle cx="490" cy="185" r="2" fill="#757575"/>
  </g>

  <g id="stem-cross-section">
    <circle cx="380" cy="380" r="100" fill="#FCFCFC" filter="url(#drop-shadow)"/>
    
    <circle cx="380" cy="380" r="101" fill="none" stroke="#A5D6A7" stroke-width="2" opacity="0.7"/>
    <circle cx="380" cy="380" r="100" fill="none" stroke="#1B5E20" stroke-width="3"/>
    
    <circle cx="380" cy="380" r="98" fill="#F1F8E9"/>
    <circle cx="380" cy="380" r="98" fill="url(#pith-cells)"/>
    
    <circle cx="380" cy="380" r="96" fill="none" stroke="#81C784" stroke-width="8"/>
    
    <circle cx="380" cy="380" r="88" fill="none" stroke="#4CAF50" stroke-width="2" stroke-dasharray="4 2"/>

    <use href="#vascular-bundle" x="380" y="380" transform="rotate(0 380 380)"/>
    <use href="#vascular-bundle" x="380" y="380" transform="rotate(45 380 380)"/>
    <use href="#vascular-bundle" x="380" y="380" transform="rotate(90 380 380)"/>
    <use href="#vascular-bundle" x="380" y="380" transform="rotate(135 380 380)"/>
    <use href="#vascular-bundle" x="380" y="380" transform="rotate(180 380 380)"/>
    <use href="#vascular-bundle" x="380" y="380" transform="rotate(225 380 380)"/>
    <use href="#vascular-bundle" x="380" y="380" transform="rotate(270 380 380)"/>
    <use href="#vascular-bundle" x="380" y="380" transform="rotate(315 380 380)"/>

    <path d="M 485 380 L 500 380" stroke="#757575" stroke-width="1.5"/>
    <circle cx="485" cy="380" r="2" fill="#757575"/>
    <path d="M 465 320 L 480 310" stroke="#757575" stroke-width="1.5"/>
    <circle cx="465" cy="320" r="2" fill="#757575"/>
    <path d="M 440 290 L 455 275" stroke="#757575" stroke-width="1.5"/>
    <circle cx="440" cy="290" r="2" fill="#757575"/>
  </g>
</svg>